<svg id="Layer_2" data-name="Layer 2" xmlns="http://www.w3.org/2000/svg" viewBox="0 0 263.46 188.91"><defs><style>.cls-1{fill:none;}.cls-1,.cls-2{stroke:#00a59f;stroke-miterlimit:10;stroke-width:7px;}.cls-2{fill:#00a59f;}</style></defs><title>fish</title><path class="cls-1" d="M25.5,156.5c4.48-9.13,19-35.68,51-52a115.45,115.45,0,0,1,62-12c10,.37,39.49,2.78,66,25a107.6,107.6,0,0,1,30,41,124.67,124.67,0,0,1-28,34c-31.14,26.35-66.59,29.51-80,30-11.66-.76-40-4.21-67-25A121.73,121.73,0,0,1,25.5,156.5Z" transform="translate(-21.59 -63.46)"/><path class="cls-1" d="M280.5,118.5a44.6,44.6,0,0,0-46,40,44.76,44.76,0,0,0,47,35Q281,156,280.5,118.5Z" transform="translate(-21.59 -63.46)"/><path class="cls-1" d="M93,97c22.34,9.74,37.61,30.74,39.5,54.5,2.11,26.52-12.81,52.1-37.5,64" transform="translate(-21.59 -63.46)"/><path class="cls-1" d="M146.5,161.5a34.25,34.25,0,0,1,21-20,30.52,30.52,0,0,1,31,19,47.08,47.08,0,0,1-7,7,49.43,49.43,0,0,1-22,10,30.14,30.14,0,0,1-16-7A29.24,29.24,0,0,1,146.5,161.5Z" transform="translate(-21.59 -63.46)"/><path class="cls-1" d="M57.37,117.35c14.22-32.71,47.09-52.82,81.13-50.16,29.54,2.32,55.72,21.45,68,49.42" transform="translate(-21.59 -63.46)"/><path class="cls-1" d="M170.14,210a45.28,45.28,0,0,0,7.64,18.5,34.82,34.82,0,0,0,21.22,14c-3.13,1.78-22,12.09-42.43,2-12.32-6.07-19.23-16.56-22.07-21.5" transform="translate(-21.59 -63.46)"/><circle class="cls-2" cx="51.91" cy="78.04" r="10"/></svg>