<?xml version="1.0" encoding="utf-8"?>
<!-- Generator: Adobe Illustrator 22.0.1, SVG Export Plug-In . SVG Version: 6.00 Build 0)  -->
<svg version="1.1" id="Layer_12" xmlns="http://www.w3.org/2000/svg" xmlns:xlink="http://www.w3.org/1999/xlink" x="0px" y="0px"
	 viewBox="0 0 247.9 301.3" style="enable-background:new 0 0 247.9 301.3;" xml:space="preserve">
<style type="text/css">
	.st0{fill:#00A99D;}
	.st1{fill:#FFFFFF;stroke:#00A99D;stroke-width:7;stroke-miterlimit:10;}
	.st2{fill:none;stroke:#00A99D;stroke-width:7;stroke-miterlimit:10;}
</style>
<title>logoLayer</title>
<path class="st0" d="M244.4,297.7c-14.7,0.5-50.5-0.2-85.2-23.4c-60.8-40.6-64-114-64.2-122V4.2c8.4-0.4,67.4-2.7,111.4,44.1
	c38.8,41.3,38.3,91.3,38,101.2L244.4,297.7z"/>
<polygon class="st1" points="73.1,113.6 3.6,113.1 7.1,3.5 76,4 "/>
<path class="st1" d="M43.1,60.9L5,2.9L43.1,60.9z"/>
<line class="st2" x1="3.9" y1="113.2" x2="43" y2="58.3"/>
<circle class="st1" cx="133.5" cy="43.5" r="16.5"/>
<polyline class="st1" points="92.7,5.3 59.9,33.8 92.9,32.7 "/>
<polyline class="st1" points="94.7,70.8 77.9,56.7 78,35.6 94.9,36.2 "/>
</svg>
