<svg id="Layer_12" data-name="Layer 12" xmlns="http://www.w3.org/2000/svg" viewBox="0 0 247.9 301.27"><defs><style>.cls-1{fill:none;}.cls-1,.cls-2{stroke:#00a99d;stroke-miterlimit:10;stroke-width:7px;}.cls-2{fill:#fff;}</style></defs><title>logoLayer</title><path class="cls-1" d="M360,396.52c-14.73.54-50.53-.23-85.2-23.37-60.84-40.62-64-114-64.23-122V103.09c8.39-.45,67.4-2.68,111.39,44.15,38.76,41.27,38.32,91.31,38,101.21Z" transform="translate(-115.64 -98.85)"/><polygon class="cls-2" points="73.1 113.58 3.61 113.13 7.08 3.52 75.97 3.95 73.1 113.58"/><path class="cls-2" d="M158.75,159.77l-38.07-58Z" transform="translate(-115.64 -98.85)"/><line class="cls-2" x1="3.88" y1="113.19" x2="42.95" y2="58.34"/><circle class="cls-2" cx="134.05" cy="42.89" r="10.25"/><polyline class="cls-2" points="92.71 5.35 59.86 33.77 92.86 32.65"/><polyline class="cls-2" points="94.67 70.82 77.86 56.65 78 35.56 94.9 36.18"/></svg>