<svg xmlns="http://www.w3.org/2000/svg" viewBox="0 0 338.47 426">
<path class="cls-1" d="M377.19,468.71c-19,1-69.52,1.16-118.85-31.42C181.63,386.61,172,299.22,170.91,287l-5.46-131.15-23.23-16.39v79.23L42.5,217.35l4.1-153,49.18,79.24q-20.49,30-41,60.1" transform="translate(-38.91 -46.5)"/>
<path class="cls-1" d="M169.55,108.06H120.37l49.18-38.25c13.3-.83,80.08-3.58,138,46.45,55.9,48.3,64.11,111.77,65.57,125.67V442.75" transform="translate(-38.91 -46.5)"/>
<polyline class="cls-1" fill="freeze" points="14.52 3.5 102.64 5.97 102.64 29.45"/>
<circle class="cls-2" cx="187.33" cy="78.63" r="17.08"/>
<path class="cls-1" d="M233.85,266.89c-.54,3.17-10.74,70.33,38.25,110.65,28.73,23.65,61.59,24.71,72.4,24.59" transform="translate(-38.91 -46.5)"/>
</svg>