<svg id="Layer_3" data-name="Layer 3" xmlns="http://www.w3.org/2000/svg" viewBox="0 0 249.43 260.94"><defs><style>.cls-1{fill:none;}.cls-1,.cls-2{stroke:#00a59f;stroke-miterlimit:10;stroke-width:9px;}.cls-2{fill:#00a59f;}</style></defs><title>poultry</title><path class="cls-1" d="M122,111a107.34,107.34,0,0,0,32.5,16.5c45.2,13.8,85.37-7.68,95.5-13.5l14-13c.16,9,.24,71.47-48.5,110.5-21.33,17.08-43.84,23.12-57.5,25.5-7.42-1.2-43.5-7.84-68.5-41.5C66.42,164.44,68.3,131.24,69,123q2-21.5,4-43A22.79,22.79,0,0,1,92.5,66.5c12-.61,19,8.82,19.5,9.5Q117,93.51,122,111Z" transform="translate(-19.09 -11.72)"/><path class="cls-1" d="M76.5,57.5v-41c.6-.11,13.14-2.19,21,7a22,22,0,0,1,5,15,16.95,16.95,0,0,1,14,18" transform="translate(-19.09 -11.72)"/><ellipse class="cls-2" cx="74.91" cy="79.28" rx="6.5" ry="5.5"/><path class="cls-1" d="M60.5,85.5a41.81,41.81,0,0,0-35,27l31,1" transform="translate(-19.09 -11.72)"/><path class="cls-1" d="M97.5,133.5c.82,5.33,6.51,39.36,32,52,29.77,14.76,78.86-3.46,103-53" transform="translate(-19.09 -11.72)"/><line class="cls-1" x1="130.41" y1="232.78" x2="129.41" y2="260.78"/></svg>